<?xml version="1.0" encoding="UTF-8" standalone="no"?>
<svg width="32px" height="32px" viewBox="0 0 32 32" version="1.1" xmlns="http://www.w3.org/2000/svg" xmlns:xlink="http://www.w3.org/1999/xlink" xmlns:sketch="http://www.bohemiancoding.com/sketch/ns">
    <!-- Generator: Sketch 3.3.3 (12081) - http://www.bohemiancoding.com/sketch -->
    <title>Back</title>
    <desc>Created with Sketch.</desc>
    <defs></defs>
    <g id="Page-1" stroke="none" stroke-width="1" fill="none" fill-rule="evenodd" sketch:type="MSPage">
        <g id="Artboard-2" sketch:type="MSArtboardGroup" transform="translate(-241.000000, -74.000000)" fill="#FFFFFF">
            <g id="Back" sketch:type="MSLayerGroup" transform="translate(241.000000, 74.000000)">
                <g id="Group" sketch:type="MSShapeGroup">
                    <path d="M16,2 C8.269,2 2,8.269 2,16 C2,23.731 8.269,30 16,30 C23.731,30 30,23.731 30,16 C30,8.269 23.731,2 16,2 L16,2 Z M16,28 C9.383,28 4,22.617 4,16 C4,9.383 9.383,4 16,4 C22.617,4 28,9.383 28,16 C28,22.617 22.617,28 16,28 L16,28 Z" id="Shape"></path>
                    <path d="M17.121,11.414 L15.707,10 L9,16.707 L15.707,23.414 L17.121,22 L12.828,17.707 L24.414,17.707 L24.414,15.707 L12.828,15.707 L17.121,11.414 Z" id="Shape"></path>
                </g>
            </g>
        </g>
    </g>
</svg>