<?xml version="1.0" encoding="UTF-8" standalone="no"?>
<svg width="64px" height="64px" viewBox="0 0 64 64" version="1.1" xmlns="http://www.w3.org/2000/svg" xmlns:xlink="http://www.w3.org/1999/xlink" xmlns:sketch="http://www.bohemiancoding.com/sketch/ns">
    <!-- Generator: Sketch 3.3.3 (12081) - http://www.bohemiancoding.com/sketch -->
    <title>Bluemix</title>
    <desc>Created with Sketch.</desc>
    <defs></defs>
    <g id="Page-1" stroke="none" stroke-width="1" fill="none" fill-rule="evenodd" sketch:type="MSPage">
        <g id="Artboard-2" sketch:type="MSArtboardGroup" transform="translate(-86.000000, -74.000000)" stroke="#ECF0F2" stroke-width="1.5">
            <g id="Bluemix" sketch:type="MSLayerGroup" transform="translate(86.000000, 74.000000)">
                <path d="M21.8,32.3 C21.8,34.1 22.2,35.8 22.8,37.5 C23.5,39.1 24.4,40.5 25.7,41.7 L26.5,42.5 L26.5,22.1 C26.2,22.3 25.9,22.6 25.7,22.9 C24.5,24.1 23.5,25.5 22.8,27.1 C22.1,28.8 21.8,30.5 21.8,32.3 L21.8,32.3 Z" id="Shape" fill="#1D3649" sketch:type="MSShapeGroup"></path>
                <path d="M44.5,22.9 C43.3,21.7 41.9,20.7 40.3,20 C38.7,19.3 36.9,19 35.1,19 C33.5,19 32,19.3 30.5,19.8 L48.2,30 C48,29 47.7,28.1 47.4,27.1 C46.7,25.6 45.7,24.1 44.5,22.9 L44.5,22.9 Z" id="Shape" fill="#00B4A0" sketch:type="MSShapeGroup"></path>
                <path d="M28.9,20.5 L28.9,20.5 L35.4,31.8 L48.4,31.8 L48.4,31.4 L29.3,20.4 C29.2,20.4 29,20.5 28.9,20.5 L28.9,20.5 Z" id="Shape" fill="#00B4A0" sketch:type="MSShapeGroup"></path>
                <path d="M48.4,32.9 L48.4,32.9 L35.4,32.9 L28.9,44.2 L28.9,44.2 C29,44.3 29.2,44.3 29.3,44.4 L48.4,33.4 L48.4,32.9 L48.4,32.9 Z" id="Shape" fill="#5AAAFA" sketch:type="MSShapeGroup"></path>
                <path d="M40.3,44.6 C41.9,43.9 43.3,43 44.5,41.7 C45.7,40.5 46.7,39.1 47.4,37.5 C47.8,36.6 48.1,35.6 48.2,34.6 L30.5,44.8 C32,45.3 33.5,45.6 35.1,45.6 C36.9,45.7 38.6,45.3 40.3,44.6 L40.3,44.6 Z" id="Shape" fill="#5AAAFA" sketch:type="MSShapeGroup"></path>
                <path d="M34.4,32.3 L34.4,32.3 L27.9,21 L27.9,21 L27.5,21.2 L27.5,43.2 C27.6,43.3 27.7,43.4 27.9,43.4 L27.9,43.4 L34.4,32.3 L34.4,32.3 Z" id="Shape" fill="#1D3649" sketch:type="MSShapeGroup"></path>
                <path d="M49.4,30.7 C49.4,30.9 49.4,31.1 49.5,31.3 L56.1,19.9 L49.2,8 L35.5,8 L28.9,19.4 C29.1,19.3 29.3,19.2 29.5,19.1 C31.2,18.4 33.1,18 35.1,18 C42.5,18 48.5,23.5 49.4,30.7 Z" id="Shape" fill="#00B4A0" sketch:type="MSShapeGroup"></path>
                <rect id="Rectangle-path" fill="#90908F" sketch:type="MSShapeGroup" x="29" y="45.2" width="-0.1" height="0.5"></rect>
                <path d="M49.4,33.4 L49.4,33.4 C49.4,33.6 49.4,33.8 49.3,34 C48.5,41.1 42.4,46.7 35,46.7 C33,46.7 31.1,46.3 29.3,45.5 C29.1,45.4 28.9,45.3 28.7,45.2 L35.3,56.6 L49,56.6 L55.9,44.7 L49.4,33.4 L49.4,33.4 Z" id="Shape" fill="#5AAAFA" sketch:type="MSShapeGroup"></path>
                <path d="M27.1,20.4 L13.9,20.4 L7,32.3 L13.9,44.2 L27.1,44.2 L27.1,44.2 C26.9,44.1 26.8,44 26.6,43.8 C23.1,41.2 20.8,37 20.8,32.3 C20.8,27.6 23.1,23.4 26.6,20.8 C26.7,20.7 26.9,20.5 27.1,20.4 L27.1,20.4 Z" id="Shape" fill="#1D3649" sketch:type="MSShapeGroup"></path>
            </g>
        </g>
    </g>
</svg>