<?xml version="1.0" encoding="UTF-8" standalone="no"?>
<svg width="32px" height="32px" viewBox="0 0 32 32" version="1.1" xmlns="http://www.w3.org/2000/svg" xmlns:xlink="http://www.w3.org/1999/xlink" xmlns:sketch="http://www.bohemiancoding.com/sketch/ns">
    <!-- Generator: Sketch 3.3.3 (12081) - http://www.bohemiancoding.com/sketch -->
    <title>Remove</title>
    <desc>Created with Sketch.</desc>
    <defs></defs>
    <g id="Page-1" stroke="none" stroke-width="1" fill="none" fill-rule="evenodd" sketch:type="MSPage">
        <g id="Artboard-2" sketch:type="MSArtboardGroup" transform="translate(-200.000000, -74.000000)" fill="#87B1D7">
            <g id="Remove" sketch:type="MSLayerGroup" transform="translate(200.000000, 74.000000)">
                <rect id="Rectangle-path-Copy-5" sketch:type="MSShapeGroup" x="9" y="15" width="14" height="2"></rect>
                <path d="M16,2 C8.269,2 2,8.269 2,16 C2,23.731 8.269,30 16,30 C23.731,30 30,23.731 30,16 C30,8.269 23.731,2 16,2 L16,2 Z M16,28 C9.383,28 4,22.617 4,16 C4,9.383 9.383,4 16,4 C22.617,4 28,9.383 28,16 C28,22.617 22.617,28 16,28 L16,28 Z" id="Shape-Copy-4" sketch:type="MSShapeGroup"></path>
                <rect id="Rectangle-path-Copy-4" sketch:type="MSShapeGroup" x="9" y="15" width="14" height="2"></rect>
                <path d="M16,2 C8.269,2 2,8.269 2,16 C2,23.731 8.269,30 16,30 C23.731,30 30,23.731 30,16 C30,8.269 23.731,2 16,2 L16,2 Z M16,28 C9.383,28 4,22.617 4,16 C4,9.383 9.383,4 16,4 C22.617,4 28,9.383 28,16 C28,22.617 22.617,28 16,28 L16,28 Z" id="Shape-Copy-5" sketch:type="MSShapeGroup"></path>
            </g>
        </g>
    </g>
</svg>